<svg width="27" height="28" viewBox="0 0 27 28" fill="none" xmlns="http://www.w3.org/2000/svg">
<path d="M21.2094 0.814453H5.79174C2.59807 0.814453 0 3.33541 0 6.43252V22.1953C0 25.2935 2.59807 27.8145 5.79174 27.8145H21.2094C24.4019 27.8145 27 25.2935 27 22.1953V6.43252C27 3.33541 24.4019 0.814453 21.2094 0.814453ZM13.5005 21.8431C12.0013 21.8429 10.5357 21.4012 9.28923 20.574C8.04273 19.7468 7.07126 18.5712 6.49766 17.1958C5.92406 15.8204 5.7741 14.307 6.06672 12.847C6.35935 11.387 7.08143 10.0459 8.14165 8.99331C9.20188 7.94075 10.5526 7.22398 12.0231 6.93364C13.4936 6.64329 15.0178 6.79242 16.4029 7.36215C17.788 7.93188 18.9719 8.89664 19.8049 10.1344C20.6378 11.3722 21.0824 12.8274 21.0824 14.3161C21.08 16.3118 20.2805 18.2252 18.8591 19.6363C17.4377 21.0474 15.5106 21.8411 13.5005 21.8431ZM22.3852 7.49352C22.0433 7.53786 21.696 7.47479 21.392 7.31316C21.088 7.15153 20.8426 6.89945 20.6903 6.5923C20.5379 6.28515 20.4862 5.93834 20.5425 5.60054C20.5988 5.26275 20.7601 4.95092 21.0039 4.70882C21.2478 4.46672 21.5618 4.30649 21.902 4.25063C22.2422 4.19478 22.5915 4.24608 22.9009 4.39736C23.2102 4.54863 23.4641 4.79228 23.6269 5.09411C23.7897 5.39594 23.8532 5.74081 23.8085 6.08031C23.7612 6.43864 23.596 6.77143 23.3387 7.02698C23.0813 7.28253 22.7461 7.44653 22.3852 7.49352Z" fill="#E5E8EB"/>
<path d="M13.5006 9.62109C12.5656 9.62109 11.6516 9.8964 10.8741 10.4122C10.0967 10.928 9.49076 11.6611 9.13294 12.5188C8.77513 13.3765 8.68151 14.3203 8.86392 15.2309C9.04633 16.1415 9.49659 16.9779 10.1577 17.6343C10.8189 18.2908 11.6613 18.7379 12.5783 18.919C13.4954 19.1001 14.4459 19.0072 15.3098 18.6519C16.1736 18.2966 16.912 17.6949 17.4314 16.923C17.9509 16.1511 18.2282 15.2435 18.2282 14.3151C18.227 13.0706 17.7286 11.8773 16.8422 10.9972C15.9559 10.1172 14.7541 9.62225 13.5006 9.62109Z" fill="#E5E8EB"/>
</svg>
