<svg width="33" height="20" viewBox="0 0 33 20" fill="none" xmlns="http://www.w3.org/2000/svg">
<path fill-rule="evenodd" clip-rule="evenodd" d="M15.9548 19.2542H17.9069C17.9069 19.2542 18.496 19.188 18.7968 18.8606C19.0735 18.5599 19.0644 17.9944 19.0644 17.9944C19.0644 17.9944 19.0265 15.3494 20.2402 14.9605C21.454 14.5715 22.9732 17.5149 24.6038 18.6469C25.8347 19.5027 26.7706 19.3146 26.7706 19.3146L31.125 19.253C31.125 19.253 33.4032 19.1114 32.3226 17.3001C32.2342 17.1526 31.6934 15.9602 29.0844 13.5114C26.3538 10.9489 26.7201 11.3634 30.0088 6.9303C32.0092 4.23772 32.8095 2.58431 32.5592 1.87837C32.3203 1.20609 30.8471 1.38374 30.8471 1.38374L25.9438 1.41393C25.7262 1.38882 25.5061 1.42921 25.3111 1.53004C25.0482 1.68911 24.8782 2.06182 24.8782 2.06182C24.3703 3.39391 23.765 4.68591 23.0673 5.92712C20.8856 9.6763 20.0106 9.87485 19.6534 9.64263C18.8232 9.1004 19.0311 7.46325 19.0311 6.29983C19.0311 2.66675 19.5765 1.15152 17.97 0.76023C17.4372 0.626703 17.0445 0.540782 15.6815 0.522204C13.9315 0.503627 12.4513 0.522204 11.613 0.942522C11.055 1.21886 10.6244 1.83425 10.8873 1.8714C11.2111 1.91552 11.9449 2.07111 12.3342 2.60638C12.8371 3.30303 12.8188 4.84962 12.8188 4.84962C12.8188 4.84962 13.1081 9.12594 12.1447 9.65772C11.4844 10.0223 10.5773 9.27804 8.6309 5.87719C7.97 4.69499 7.38507 3.47098 6.87974 2.21276C6.78999 1.99889 6.65148 1.80951 6.47554 1.66008C6.24757 1.50713 5.99132 1.40246 5.72225 1.35239L1.0636 1.38374C1.0636 1.38374 0.364282 1.40348 0.107062 1.71117C-0.122598 1.98519 0.0886896 2.55064 0.0886896 2.55064C0.0886896 2.55064 3.73684 11.1799 7.86728 15.5282C11.6567 19.5154 15.9559 19.2542 15.9559 19.2542H15.9548Z" fill="#E5E8EB"/>
</svg>
