<svg width="32" height="24" viewBox="0 0 32 24" fill="none" xmlns="http://www.w3.org/2000/svg">
<path d="M27.314 0.814454H4.67875C3.43701 0.815768 2.2466 1.32479 1.36923 2.22961C0.49186 3.13443 -0.000643232 4.36097 -4.14718e-06 5.63959V18.9893C-0.000323579 20.2685 0.492778 21.4954 1.37086 22.4002C2.24894 23.3051 3.44009 23.8138 4.68236 23.8145H27.3176C28.5599 23.8138 29.7511 23.3051 30.6291 22.4002C31.5072 21.4954 32.0003 20.2685 32 18.9893V5.63959C32.0003 5.00586 31.8793 4.37827 31.6439 3.79271C31.4086 3.20715 31.0634 2.6751 30.6282 2.22698C30.193 1.77886 29.6763 1.42345 29.1076 1.18108C28.539 0.938711 27.9295 0.814128 27.314 0.814454ZM12.6782 16.6412V7.31699L21.3566 11.9785L12.6782 16.6412Z" fill="#E5E8EB"/>
</svg>
