<svg width="67" height="67" viewBox="0 0 67 67" fill="none" xmlns="http://www.w3.org/2000/svg">
<rect width="67" height="67" rx="5" fill="#213B32"/>
<path d="M18.696 37.2003C19.0196 37.2003 19.2819 36.9379 19.2819 36.6143C19.2819 36.2907 19.0196 36.0284 18.696 36.0284C18.3724 36.0284 18.1101 36.2907 18.1101 36.6143C18.1101 36.9379 18.3724 37.2003 18.696 37.2003Z" fill="white"/>
<path d="M18.696 40.5186C19.0196 40.5186 19.2819 40.2562 19.2819 39.9326C19.2819 39.609 19.0196 39.3467 18.696 39.3467C18.3724 39.3467 18.1101 39.609 18.1101 39.9326C18.1101 40.2562 18.3724 40.5186 18.696 40.5186Z" fill="white"/>
<path d="M49.8209 14H16.4455C15.6484 14 15 14.6484 15 15.4454V22.75C15 23.0736 15.2623 23.3359 15.5859 23.3359C15.9095 23.3359 16.1719 23.0736 16.1719 22.75V15.4454C16.1719 15.2945 16.2946 15.1719 16.4455 15.1719H49.8209C49.9718 15.1719 50.0945 15.2946 50.0945 15.4454V52.5545C50.0945 52.7054 49.9718 52.828 49.8209 52.828H44.9918V24.5553C44.9918 23.767 44.3505 23.1257 43.5622 23.1257H40.1041C39.7805 23.1257 39.5182 23.388 39.5182 23.7116C39.5182 24.0352 39.7805 24.2976 40.1041 24.2976H43.5622C43.7043 24.2976 43.8199 24.4132 43.8199 24.5553V52.8281H33.7191V24.2976H37.7604C38.0841 24.2976 38.3463 24.0352 38.3463 23.7116C38.3463 23.388 38.0841 23.1257 37.7604 23.1257H22.7043C21.916 23.1257 21.2747 23.767 21.2747 24.5553V33.6427H16.1719V25.0938C16.1719 24.7702 15.9095 24.5078 15.5859 24.5078C15.2623 24.5078 15 24.7702 15 25.0938V52.5546C15 53.3516 15.6484 54 16.4455 54H49.8209C50.618 54 51.2664 53.3516 51.2664 52.5546V15.4454C51.2664 14.6484 50.618 14 49.8209 14V14ZM21.2747 34.8145V42.4876H16.1719V34.8145H21.2747ZM16.1719 52.5546V43.6595H21.2746V52.8281H16.4455C16.2946 52.8281 16.1719 52.7054 16.1719 52.5546V52.5546ZM22.4466 24.5553C22.4466 24.4132 22.5622 24.2976 22.7043 24.2976H32.5473V52.8281H22.4465V24.5553H22.4466Z" fill="white"/>
<path d="M28.5064 21.4838H32.4467C32.6561 21.4838 32.8495 21.3722 32.9542 21.1909C33.0065 21.1002 33.0327 20.9991 33.0327 20.8979C33.0327 20.7967 33.0065 20.6955 32.9542 20.6049L30.984 17.1925C30.8793 17.0112 30.6859 16.8995 30.4766 16.8995C30.2672 16.8995 30.0739 17.0112 29.9692 17.1925L27.999 20.6049C27.9467 20.6955 27.9205 20.7967 27.9205 20.8979C27.9205 20.9991 27.9467 21.1002 27.999 21.1909C28.1037 21.3722 28.2971 21.4838 28.5064 21.4838V21.4838ZM30.4766 18.6573L31.4319 20.312H29.5213L30.4766 18.6573Z" fill="white"/>
<path d="M35.7902 21.4838C35.9996 21.4838 36.193 21.3722 36.2977 21.1909L38.2678 17.7784C38.3202 17.6878 38.3463 17.5866 38.3463 17.4855C38.3463 17.3843 38.3202 17.2831 38.2678 17.1925C38.1631 17.0112 37.9698 16.8995 37.7604 16.8995H33.8201C33.6107 16.8995 33.4173 17.0112 33.3127 17.1925C33.2603 17.2831 33.2341 17.3843 33.2341 17.4855C33.2341 17.5866 33.2603 17.6878 33.3127 17.7784L35.2829 21.1909C35.3875 21.3722 35.5809 21.4838 35.7902 21.4838ZM36.7456 18.0714L35.7902 19.726L34.8349 18.0714H36.7456Z" fill="white"/>
<path d="M35.5262 36.6143V39.1698C35.5262 39.4934 35.7885 39.7557 36.1121 39.7557C36.4358 39.7557 36.6981 39.4934 36.6981 39.1698V36.6143C36.6981 36.2907 36.4358 36.0284 36.1121 36.0284C35.7885 36.0284 35.5262 36.2907 35.5262 36.6143Z" fill="white"/>
<path d="M30.1551 36.0284C29.8315 36.0284 29.5692 36.2907 29.5692 36.6143V39.1698C29.5692 39.4934 29.8315 39.7557 30.1551 39.7557C30.4787 39.7557 30.741 39.4934 30.741 39.1698V36.6143C30.741 36.2907 30.4787 36.0284 30.1551 36.0284Z" fill="white"/>
</svg>
