<svg width="67" height="67" viewBox="0 0 67 67" fill="none" xmlns="http://www.w3.org/2000/svg">
<rect width="67" height="67" rx="5" fill="#213B32"/>
<path d="M47.2069 21.9864C45.9507 20.7302 44.3648 19.9047 42.6207 19.5989C40.9165 19.3003 39.1846 19.5151 37.6119 20.2201C37.2182 20.3967 37.0422 20.859 37.2187 21.2526C37.3951 21.6463 37.8573 21.8222 38.2512 21.6459C40.8964 20.4598 44.0515 21.0407 46.102 23.0912C47.4301 24.4193 48.1614 26.185 48.1614 28.063C48.1614 29.9412 47.43 31.7069 46.1019 33.0349C43.3604 35.7764 38.8997 35.7763 36.1583 33.0349C34.1101 30.9868 33.5257 27.9441 34.6694 25.2834C34.8397 24.8871 34.6565 24.4276 34.2601 24.2572C33.8635 24.0866 33.4042 24.2701 33.2339 24.6665C32.5626 26.228 32.3702 27.9403 32.6775 29.618C32.9922 31.3365 33.8137 32.9001 35.0534 34.1398C36.7287 35.8151 38.9294 36.6529 41.1301 36.6529C43.3308 36.6529 45.5315 35.8152 47.2068 34.1398C48.83 32.5167 49.7239 30.3586 49.7239 28.0631C49.7239 25.7676 48.83 23.6096 47.2069 21.9864Z" fill="white"/>
<path d="M36.1926 21.9586C35.8893 21.6519 35.3947 21.6492 35.0878 21.9525L35.0547 21.9854C34.7491 22.2899 34.7482 22.7845 35.0527 23.0902C35.2054 23.2434 35.4057 23.32 35.6061 23.32C35.8055 23.32 36.005 23.2441 36.1575 23.0922L36.1864 23.0635C36.4932 22.7601 36.496 22.2654 36.1926 21.9586Z" fill="white"/>
<path d="M41.1299 15C34.0333 15 28.2598 20.7735 28.2598 27.8702C28.2598 29.9655 28.7752 32.0458 29.7502 33.8861C29.9523 34.2673 30.425 34.4127 30.8063 34.2107C31.1876 34.0087 31.3329 33.5359 31.1309 33.1546C30.2748 31.5387 29.8223 29.7115 29.8223 27.8702C29.8223 21.6351 34.8948 16.5625 41.1299 16.5625C47.365 16.5625 52.4375 21.6351 52.4375 27.8702C52.4375 30.4929 51.5192 33.0489 49.8517 35.0672C49.8273 35.0968 49.8053 35.1278 49.7859 35.16L42.7641 44.1559C42.3005 43.9838 41.7995 43.8895 41.2768 43.8895H40.5033C40.5017 43.8895 40.5002 43.8895 40.4985 43.8895H39.3408L37.114 38.6441C36.5508 37.3173 35.2555 36.4601 33.8142 36.4601H24.6991C23.2578 36.4601 21.9627 37.3173 21.3994 38.6441L19.1726 43.8895H18.2856C15.9225 43.8894 14 45.812 14 48.1751V52.1702C14 52.3776 14.0825 52.5765 14.2293 52.723C14.3758 52.8693 14.5744 52.9514 14.7812 52.9514C14.7816 52.9514 14.7821 52.9514 14.7825 52.9514L18.576 52.9455C18.9162 54.1302 20.0089 55 21.3016 55C22.5945 55 23.6872 54.1302 24.0273 52.9452H36.5184C36.8587 54.1302 37.9514 55 39.2442 55C40.5368 55 41.6293 54.1305 41.9698 52.946L44.7798 52.9513C44.7802 52.9513 44.7808 52.9513 44.7812 52.9513C44.9881 52.9513 45.1866 52.8692 45.3331 52.723C45.4799 52.5765 45.5625 52.3776 45.5625 52.1701V48.175C45.5625 46.899 45.0013 45.7522 44.1136 44.9664L51.077 36.0454C51.0921 36.0259 51.1063 36.006 51.1193 35.9855C52.9777 33.7 54 30.8221 54 27.8702C54 20.7735 48.2265 15 41.1299 15ZM43.5885 46.738H41.9874L41.5819 45.4695C42.4282 45.5642 43.1581 46.0483 43.5885 46.738ZM30.038 38.0225H33.8142C34.6273 38.0225 35.358 38.5061 35.6757 39.2545L37.6434 43.8894H30.038V38.0225ZM15.5625 48.1751C15.5625 47.911 15.601 47.656 15.6714 47.4144H16.6945C17.0324 47.4144 17.3073 47.6893 17.3073 48.0272C17.3073 48.3651 17.0324 48.64 16.6945 48.64H15.5625V48.1751ZM21.3016 53.4375C20.5994 53.4375 20.028 52.8662 20.028 52.164C20.028 51.4618 20.5994 50.8905 21.3016 50.8905C22.0039 50.8905 22.5752 51.4618 22.5752 52.164C22.5752 52.8662 22.0039 53.4375 21.3016 53.4375ZM28.4755 51.3827H24.0274C23.6873 50.1977 22.5945 49.3279 21.3017 49.3279C20.0088 49.3279 18.916 50.1978 18.5759 51.3828L15.5625 51.3877V50.2024H16.6945C17.894 50.2024 18.8698 49.2266 18.8698 48.0271C18.8698 46.8821 17.9804 45.9416 16.8563 45.8584C17.2721 45.6009 17.7617 45.4518 18.2857 45.4518H28.4755V51.3827ZM28.4755 43.8894H20.87L22.8377 39.2545C23.1553 38.5061 23.886 38.0225 24.6991 38.0225H28.4755V43.8894ZM39.2442 53.4375C38.542 53.4375 37.9707 52.8662 37.9707 52.164C37.9707 51.4618 38.542 50.8905 39.2442 50.8905C39.9464 50.8905 40.5178 51.4618 40.5178 52.164C40.5178 52.8662 39.9465 53.4375 39.2442 53.4375ZM44 51.3873L41.9702 51.3835C41.6303 50.1981 40.5373 49.3279 39.2442 49.3279C37.9514 49.3279 36.8587 50.1977 36.5185 51.3827H30.038V45.4518H38.8237H39.9359L40.6728 47.7571C40.7763 48.0808 41.0772 48.3005 41.417 48.3005H44V51.3873Z" fill="white"/>
<path d="M41.7751 23.5403H39.5205C39.089 23.5403 38.7392 23.8901 38.7392 24.3216V26.5762V28.8309V32.0625C38.7392 32.494 39.089 32.8438 39.5205 32.8438C39.9519 32.8438 40.3017 32.494 40.3017 32.0625V29.6121H41.7751C43.449 29.6121 44.811 28.2502 44.811 26.5762C44.811 24.9022 43.449 23.5403 41.7751 23.5403ZM41.7751 28.0496H40.3017V26.5762V25.1028H41.7751C42.5875 25.1028 43.2485 25.7638 43.2485 26.5762C43.2485 27.3886 42.5876 28.0496 41.7751 28.0496Z" fill="white"/>
<path d="M26.1726 47.2415C25.7411 47.2415 25.3913 47.5913 25.3913 48.0227V48.032C25.3913 48.4635 25.7411 48.8132 26.1726 48.8132C26.604 48.8132 26.9538 48.4635 26.9538 48.032V48.0227C26.9538 47.5913 26.604 47.2415 26.1726 47.2415Z" fill="white"/>
</svg>
