<svg width="67" height="67" viewBox="0 0 67 67" fill="none" xmlns="http://www.w3.org/2000/svg">
<rect width="67" height="67" rx="5" fill="#213B32"/>
<path d="M30.9231 40.2146L27.9629 40.2069L30.9231 40.2146ZM30.9231 40.2146V44.8467C30.9231 45.1982 31.2079 45.4829 31.5593 45.4829C31.9107 45.4829 32.1955 45.1982 32.1955 44.8467V39.5799C32.1955 39.2292 31.9117 38.9446 31.561 38.9437L27.9655 38.9344H27.9654C26.2504 38.9319 24.8551 37.533 24.8551 35.8164V34.8196C25.5125 34.9363 26.1903 34.975 26.8592 34.9308C26.7995 35.9957 27.6264 36.9392 28.7168 36.9332M30.9231 40.2146L38.383 43.3366L38.3832 43.3866H38.383C38.383 43.3866 38.3829 43.3866 38.3829 43.3866L35.476 43.3936V52.7775H40.926C41.2774 52.7775 41.5622 53.0623 41.5622 53.4138C41.5622 53.7652 41.2774 54.05 40.926 54.05H25.4005C25.0492 54.05 24.7643 53.7652 24.7643 53.4138C24.7643 53.0623 25.0492 52.7775 25.4005 52.7775H30.923V47.1256C30.923 46.7742 31.2079 46.4894 31.5592 46.4894C31.9106 46.4894 32.1955 46.7742 32.1955 47.1256V52.7775H34.2036V42.7591C34.2036 42.4083 34.4875 42.1237 34.8383 42.1228L38.3807 42.1142L38.381 42.1142C40.186 42.1192 41.5935 40.5651 41.495 38.7798C40.8114 38.8257 40.1018 38.7832 39.4393 38.6611M28.7168 36.9332H28.7165V36.8832L28.7168 36.9332ZM28.7168 36.9332H31.5594C31.9108 36.9332 32.1956 36.6485 32.1956 36.297V32.5335M32.1956 32.5335C32.38 32.3516 32.5558 32.1625 32.7218 31.9656M32.1956 32.5335V32.5126H32.1456M32.1956 32.5335C32.1906 32.5384 32.1857 32.5433 32.1807 32.5482L32.1456 32.5126M32.7218 31.9656C32.9568 33.2232 33.4736 34.3826 34.2037 35.3756M32.7218 31.9656C32.7357 31.949 32.7496 31.9324 32.7634 31.9158C32.9945 33.187 33.5149 34.3585 34.2537 35.3592M32.7218 31.9656C32.7178 31.9443 32.7139 31.923 32.7101 31.9017C32.5329 32.114 32.3443 32.3175 32.1456 32.5126M34.2037 35.3756V39.4768C34.2037 39.8283 34.4885 40.1131 34.8399 40.1131H37.6304C38.5142 40.1131 39.255 39.4906 39.4393 38.6611M34.2037 35.3756V35.3592H34.2537M34.2037 35.3756C34.2069 35.38 34.2102 35.3845 34.2134 35.3889L34.2537 35.3592M39.4393 38.6611C39.4428 38.6449 39.4462 38.6287 39.4494 38.6124L39.4005 38.6029L32.1456 32.5126M39.4393 38.6611C39.4231 38.6581 39.407 38.6551 39.3909 38.652L39.4003 38.6029C39.2391 39.4337 38.5069 40.0631 37.6304 40.0631H34.8399C34.5161 40.0631 34.2537 39.8007 34.2537 39.4768V35.3592M25.8728 18.209C30.055 10.8437 41.2337 13.6114 41.5378 22.067C45.8778 22.3712 49.3161 26.0018 49.3161 30.4218C49.3161 34.415 46.5096 37.7637 42.7672 38.5977L25.8728 18.209ZM25.8728 18.209C23.8349 18.3157 21.9246 19.1536 20.4587 20.5929C20.4587 20.5929 20.4587 20.5929 20.4587 20.5929L20.4937 20.6286C20.2626 20.8553 20.2592 21.2265 20.4861 21.4575M25.8728 18.209L21.3151 21.4652C21.0841 21.692 20.7129 21.6886 20.4861 21.4575M20.4861 21.4575L20.4504 21.4925C20.4504 21.4925 20.4504 21.4925 20.4505 21.4925M20.4861 21.4575L20.4505 21.4925M20.4505 21.4925C20.6966 21.7433 21.0994 21.747 21.3502 21.5008L21.3503 21.5007C25.8654 17.0399 33.6125 20.4393 33.4114 26.7817M20.4505 21.4925L33.4114 26.7817M33.4114 26.7817C32.9521 27.7303 32.667 28.7782 32.5966 29.8836C31.4105 32.1837 28.9065 33.7034 26.3189 33.6761L26.318 33.6762C21.0567 33.713 17.5709 27.98 20.0078 23.3212L20.008 23.3209C20.1689 23.0086 20.0461 22.6248 19.7338 22.4639M33.4114 26.7817L27.9628 40.2069C25.5477 40.2032 23.5826 38.2336 23.5826 35.8164V34.4886M19.7338 22.4639C19.7338 22.4639 19.7338 22.4639 19.7338 22.4639L19.7109 22.5084L19.7338 22.4639ZM19.7338 22.4639C19.4213 22.3028 19.0377 22.4257 18.8767 22.738L18.9212 22.7609M18.9212 22.7609L18.8767 22.738C18.2705 23.9146 17.95 25.2404 17.95 26.5726C17.95 30.1459 20.2433 33.3328 23.5826 34.4886M18.9212 22.7609C18.3186 23.9303 18 25.2484 18 26.5726C18 30.1365 20.2951 33.3139 23.6326 34.4529M18.9212 22.7609L23.6326 34.4529M23.5826 34.4886V34.4529H23.6326M23.5826 34.4886C23.5939 34.4925 23.6051 34.4964 23.6164 34.5002L23.6326 34.4529M40.2653 22.0733C37.9758 22.259 35.944 23.3712 34.5453 25.0334C33.8824 21.4759 30.9658 18.7026 27.3396 18.259C31.2173 12.6746 40.0141 15.2582 40.2653 22.0733ZM28.7164 35.6608C28.3963 35.6608 28.1357 35.3996 28.1357 35.0784V34.7493C29.1324 34.5291 30.0746 34.1299 30.9231 33.5687V35.6608H28.7164ZM37.6304 38.8406H35.4761V36.7541C36.2698 37.4421 37.1936 37.9836 38.2053 38.3358C38.1673 38.6204 37.9241 38.8406 37.6304 38.8406ZM40.9463 37.5253C36.9437 37.5337 33.6998 34.1639 33.8565 30.1609C33.8667 30.1048 33.8698 30.0472 33.8647 29.99C34.0872 26.2939 37.1455 23.3513 40.885 23.3188C50.3429 23.6369 50.3995 37.1253 40.9463 37.5253Z" fill="white" stroke="white" stroke-width="0.1"/>
</svg>
