<svg width="67" height="67" viewBox="0 0 67 67" fill="none" xmlns="http://www.w3.org/2000/svg">
<rect width="67" height="67" rx="5" fill="#213B32"/>
<path d="M36.0938 43.6359C36.5252 43.6359 36.875 43.2861 36.875 42.8547C36.875 42.4232 36.5252 42.0734 36.0938 42.0734C35.6623 42.0734 35.3125 42.4232 35.3125 42.8547C35.3125 43.2861 35.6623 43.6359 36.0938 43.6359Z" fill="white"/>
<path d="M47.8125 21.3984H36.875V16.9062C36.875 16.3789 36.7711 15.8672 36.568 15.3859C36.3711 14.9203 36.0891 14.5031 35.7305 14.1445C35.3719 13.7852 34.9547 13.5039 34.4891 13.307C34.0078 13.1031 33.4961 13 32.9688 13H18.9062C18.3789 13 17.8672 13.1031 17.3859 13.307C16.9203 13.5039 16.5031 13.7852 16.1445 14.1445C15.7852 14.5031 15.5039 14.9203 15.307 15.3859C15.1031 15.8672 15 16.3789 15 16.9062V49.0938C15 49.6211 15.1031 50.1328 15.307 50.6141C15.5039 51.0797 15.7852 51.4969 16.1445 51.8555C16.5031 52.2148 16.9203 52.4961 17.3859 52.693C17.8672 52.8969 18.3789 53 18.9062 53H32.9688C33.4961 53 34.0078 52.8969 34.4891 52.693C34.9547 52.4961 35.3719 52.2148 35.7305 51.8555C36.0891 51.4969 36.3711 51.0797 36.568 50.6141C36.7711 50.1328 36.875 49.6211 36.875 49.0938V46.3703C36.875 45.9398 36.5242 45.5891 36.0938 45.5891C35.6633 45.5891 35.3133 45.9391 35.3125 46.3695V49.0938C35.3102 50.3836 34.2586 51.4352 32.9688 51.4375H18.9062C17.6164 51.4352 16.5648 50.3836 16.5625 49.0938V16.9062C16.5648 15.6164 17.6164 14.5648 18.9062 14.5625H32.9688C34.2586 14.5648 35.3102 15.6164 35.3125 16.9062V21.3984H25.9375C23.9992 21.3984 22.4219 22.9758 22.4219 24.9141V27.6484C22.4219 29.5867 23.9992 31.1641 25.9375 31.1641C27.6078 31.1641 29.0094 29.9938 29.3656 28.4297H35.3125V39.3391C35.3125 39.7703 35.6633 40.1203 36.0938 40.1203C36.525 40.1203 36.875 39.7703 36.875 39.3391V28.4297H47.8125C49.7508 28.4297 51.3281 26.8523 51.3281 24.9141C51.3281 22.9758 49.7508 21.3984 47.8125 21.3984ZM47.8125 26.8672H28.6719C28.2406 26.8672 27.8906 27.2172 27.8906 27.6484C27.8906 28.7258 27.0148 29.6016 25.9375 29.6016C24.8602 29.6016 23.9844 28.7258 23.9844 27.6484V24.9141C23.9844 23.8367 24.8602 22.9609 25.9375 22.9609H47.8125C48.8898 22.9609 49.7656 23.8367 49.7656 24.9141C49.7656 25.9914 48.8898 26.8672 47.8125 26.8672Z" fill="white"/>
</svg>
