<svg width="128" height="56" viewBox="0 0 128 56" fill="none" xmlns="http://www.w3.org/2000/svg">
<path d="M30.8384 29.0133C28.2985 31.2177 25.2795 32.7272 22.0927 33.3981C22.0687 33.3981 21.7093 33.494 21.3259 33.5419C20.0321 33.7815 18.7861 33.8773 17.636 33.8773C10.7832 33.8773 6.4223 30.451 6.20665 30.2832C-1.05348 24.4607 0.0247555 15.0202 0.096638 14.6128C0.671698 9.96444 2.90006 5.93902 6.35042 3.30333C7.6443 2.32094 12.3885 -0.841891 18.7382 0.212385C22.0448 0.763484 24.5367 2.2251 26.2619 3.63878L23.4345 7.16103C22.2125 6.17863 20.3915 5.07643 17.9954 4.6691C13.4189 3.90235 10.0164 6.17863 9.08195 6.89746C5.91912 9.34146 4.86484 12.7439 4.57731 15.1639C4.57731 15.2358 3.76265 22.5199 9.03403 26.761C9.20175 26.9047 13.6824 30.3311 20.5352 29.1091C20.8228 29.0612 21.1103 28.9893 21.1342 28.9893C23.5783 28.4622 25.9264 27.2881 27.8912 25.5869L30.8384 29.0133Z" fill="#213B32"/>
<path d="M38.8413 33.9013C38.6496 33.9013 38.434 33.9013 38.2183 33.8773C36.7807 33.8055 34.121 33.7096 31.4853 31.9126C28.6579 29.9717 26.9088 27.0964 26.7171 24.0294C26.5494 21.1302 27.7235 18.2309 29.88 16.2661C31.5812 14.7326 33.3543 14.2295 34.5284 14.0857C35.3909 13.9899 38.0027 13.6784 40.1352 15.5713C42.0521 17.2964 43.1782 20.6749 41.453 23.5981C39.8716 26.2818 36.4692 27.4319 33.546 26.2578L35.2232 22.0647C36.1098 22.4241 37.1161 22.0886 37.5714 21.2979C38.0985 20.4114 37.6193 19.3571 37.1161 18.9258C36.5171 18.3747 35.5347 18.4945 35.0555 18.5424C34.2887 18.6383 33.5699 18.9737 32.923 19.5727C31.7729 20.603 31.1259 22.2084 31.2218 23.718C31.3655 25.9942 33.0428 27.4798 34.0252 28.1507C35.5826 29.205 37.212 29.2769 38.41 29.3248C40.9019 29.4206 42.7948 28.606 43.945 28.1028C45.3587 27.4798 46.7005 26.6412 47.8745 25.6109L50.8457 29.0133C49.3122 30.3551 47.611 31.4333 45.766 32.248C44.52 32.8231 42.076 33.9013 38.8413 33.9013Z" fill="#213B32"/>
<path d="M81.5395 25.6588L84.4867 29.0852C80.8207 32.248 77.4422 33.9013 74.8544 33.9013C73.7043 33.9013 72.698 33.5898 71.9072 32.9189C70.7811 32.0084 70.23 30.5468 70.2779 28.6299L70.3019 27.9111C68.8642 30.1155 67.1151 32.1282 65.1503 33.8774H60.5019L60.5259 33.1825C60.6217 30.403 60.7175 27.6236 60.8134 24.8202C60.3102 25.6827 59.7831 26.4974 59.232 27.3121C57.4349 29.9717 54.7992 33.8534 51.6843 33.8534C51.3249 33.8534 50.9655 33.8055 50.6061 33.6857C47.5151 32.7752 46.8442 28.3184 46.8203 24.7722L51.3489 24.7483C51.3728 26.8568 51.6843 28.3903 51.9718 29.1091C52.5948 28.6779 53.6491 27.5038 55.518 24.7722C57.6745 21.6094 59.4716 17.9913 60.8853 13.9899H65.7253C65.5816 18.3747 65.4139 22.7595 65.2461 27.1683C66.4442 25.6348 67.4985 23.9815 68.3131 22.2324C69.5351 19.6446 70.3258 16.8652 70.6373 14.0138H75.1659L74.7825 28.7018C74.7825 29.0133 74.8065 29.229 74.8305 29.3727C75.5972 29.4206 78.0652 28.6539 81.5395 25.6588Z" fill="#213B32"/>
<path d="M103.751 29.0852C100.804 31.649 97.737 33.1585 94.6221 33.5659C93.3761 33.7336 91.4592 33.7815 89.9257 33.8534C89.6622 33.8534 89.3986 33.8774 89.135 33.8774H89.0631C88.7277 33.8774 88.3922 33.9013 88.0568 33.9013H88.0328C85.9482 33.9013 83.9355 33.0148 82.4979 31.4573C81.0363 29.8999 80.2695 27.7913 80.4133 25.6827L80.605 14.0378H85.1336L85.0377 19.1414C85.9962 18.7341 87.0744 18.5185 88.1766 18.5424C92.202 18.6143 95.4847 21.849 95.6524 25.8984C95.7003 26.9048 95.5326 27.9351 95.1732 28.8935C97.0181 28.4143 98.9111 27.36 100.804 25.7067L103.751 29.0852ZM91.1238 26.0661C91.0519 24.4368 89.6861 23.071 88.0808 23.0471H88.0328C86.4275 23.0471 85.0377 24.3409 84.9179 25.9463C84.87 26.8568 85.1815 27.7194 85.8045 28.3903C86.3795 29.0133 87.1942 29.3727 87.9849 29.3967C88.0808 29.3967 88.1766 29.3967 88.2724 29.3967C88.9913 29.3248 89.6622 28.9893 90.2133 28.4382C90.8362 27.7673 91.1717 26.9287 91.1238 26.0661Z" fill="#213B32"/>
<path d="M127.736 28.9654C124.07 32.1282 120.692 33.8055 118.08 33.8055C116.93 33.8055 115.923 33.47 115.133 32.8231C114.414 32.224 113.935 31.4333 113.695 30.427C111.802 32.2959 109.094 33.9253 106.411 33.9253C105.309 33.9253 104.23 33.6617 103.2 33.0148C100.708 31.4813 99.4383 28.1747 99.9175 24.3889L104.398 24.9639C104.159 26.8568 104.638 28.6299 105.548 29.181C106.722 29.8998 109.047 28.7258 110.604 27.1444C110.125 27.0245 109.646 26.8568 109.19 26.6172C106.171 25.0598 105.237 21.5854 105.884 19.1175C106.914 15.14 112.018 12.8637 117.217 14.0617L116.211 18.4466C113.048 17.7277 110.58 19.0216 110.269 20.2197C110.125 20.7947 110.316 22.0886 111.251 22.5678C111.922 22.9033 112.784 22.7835 113.503 22.3043V20.8187H118.032V28.582V28.606C118.032 28.9414 118.056 29.1571 118.08 29.3008C118.847 29.3248 121.315 28.582 124.813 25.5629L127.736 28.9654Z" fill="#213B32"/>
<path d="M16.3804 51.9592H15.3943V54.1246H14.4752V51.9592H13.4891L12.0914 54.1246H11L12.7424 51.4758L11.134 49.0011H12.1105L13.4796 51.1665H14.4752V49.0011H15.3943V51.1665H16.3899L17.759 49.0011H18.745L17.1367 51.4855L18.8791 54.1246H17.7877L16.3804 51.9592Z" fill="#213B32"/>
<path d="M19.8904 49.0011H20.8094V52.7325L23.9208 49.0011H24.7537V54.1246H23.8347V50.3931L20.7328 54.1246H19.8904V49.0011Z" fill="#213B32"/>
<path d="M30.8936 49.0011V54.1246H29.9746V49.8131H27.7918L27.7343 50.9538C27.7024 51.6434 27.6418 52.2202 27.5525 52.6842C27.4631 53.1418 27.3163 53.5091 27.1121 53.7863C26.9078 54.0634 26.6238 54.2019 26.26 54.2019C26.0941 54.2019 25.9058 54.1729 25.6952 54.1149L25.7526 53.3319C25.8356 53.3512 25.9122 53.3609 25.9824 53.3609C26.2377 53.3609 26.4291 53.2481 26.5568 53.0226C26.6844 52.797 26.7674 52.5295 26.8057 52.2202C26.844 51.9108 26.8791 51.4694 26.911 50.8958L26.9972 49.0011H30.8936Z" fill="#213B32"/>
<path d="M34.8439 54.1826C34.3397 54.1826 33.8866 54.0698 33.4845 53.8443C33.0824 53.6187 32.7665 53.3093 32.5367 52.9162C32.3133 52.5166 32.2016 52.0655 32.2016 51.5628C32.2016 51.0602 32.3133 50.6122 32.5367 50.2191C32.7665 49.8195 33.0824 49.5102 33.4845 49.2911C33.8866 49.0655 34.3397 48.9527 34.8439 48.9527C35.3481 48.9527 35.7981 49.0655 36.1938 49.2911C36.5959 49.5102 36.9087 49.8195 37.132 50.2191C37.3618 50.6122 37.4767 51.0602 37.4767 51.5628C37.4767 52.0655 37.3618 52.5166 37.132 52.9162C36.9087 53.3093 36.5959 53.6187 36.1938 53.8443C35.7981 54.0698 35.3481 54.1826 34.8439 54.1826ZM34.8439 53.3706C35.1694 53.3706 35.4599 53.2965 35.7151 53.1482C35.9768 52.9936 36.1811 52.7809 36.3278 52.5102C36.4746 52.2331 36.548 51.9173 36.548 51.5628C36.548 51.2084 36.4746 50.8958 36.3278 50.6251C36.1811 50.348 35.9768 50.1353 35.7151 49.9871C35.4599 49.8389 35.1694 49.7648 34.8439 49.7648C34.5184 49.7648 34.2249 49.8389 33.9632 49.9871C33.7079 50.1353 33.5036 50.348 33.3505 50.6251C33.2037 50.8958 33.1303 51.2084 33.1303 51.5628C33.1303 51.9173 33.2037 52.2331 33.3505 52.5102C33.5036 52.7809 33.7079 52.9936 33.9632 53.1482C34.2249 53.2965 34.5184 53.3706 34.8439 53.3706Z" fill="#213B32"/>
<path d="M38.8038 49.0011H39.7229V52.7325L42.8343 49.0011H43.6672V54.1246H42.7481V50.3931L39.6463 54.1246H38.8038V49.0011ZM41.1781 48.334C40.7058 48.334 40.3388 48.2213 40.0771 47.9957C39.8154 47.7637 39.6814 47.4318 39.675 47H40.2973C40.3037 47.2385 40.3835 47.4318 40.5366 47.58C40.6962 47.7218 40.9068 47.7927 41.1685 47.7927C41.4302 47.7927 41.6408 47.7218 41.8004 47.58C41.9599 47.4318 42.0429 47.2385 42.0493 47H42.6907C42.6843 47.4318 42.5471 47.7637 42.279 47.9957C42.011 48.2213 41.644 48.334 41.1781 48.334Z" fill="#213B32"/>
<path d="M49.9943 51.9592H48.9412V54.1246H48.0221V49.0011H48.9412V51.1665H50.0135L51.6601 49.0011H52.6462L50.7219 51.4662L52.7802 54.1246H51.6984L49.9943 51.9592Z" fill="#213B32"/>
<path d="M55.7488 54.1826C55.2446 54.1826 54.7914 54.0698 54.3893 53.8443C53.9872 53.6187 53.6713 53.3093 53.4416 52.9162C53.2182 52.5166 53.1065 52.0655 53.1065 51.5628C53.1065 51.0602 53.2182 50.6122 53.4416 50.2191C53.6713 49.8195 53.9872 49.5102 54.3893 49.2911C54.7914 49.0655 55.2446 48.9527 55.7488 48.9527C56.253 48.9527 56.703 49.0655 57.0987 49.2911C57.5008 49.5102 57.8135 49.8195 58.0369 50.2191C58.2667 50.6122 58.3815 51.0602 58.3815 51.5628C58.3815 52.0655 58.2667 52.5166 58.0369 52.9162C57.8135 53.3093 57.5008 53.6187 57.0987 53.8443C56.703 54.0698 56.253 54.1826 55.7488 54.1826ZM55.7488 53.3706C56.0743 53.3706 56.3647 53.2965 56.62 53.1482C56.8817 52.9936 57.0859 52.7809 57.2327 52.5102C57.3795 52.2331 57.4529 51.9173 57.4529 51.5628C57.4529 51.2084 57.3795 50.8958 57.2327 50.6251C57.0859 50.348 56.8817 50.1353 56.62 49.9871C56.3647 49.8389 56.0743 49.7648 55.7488 49.7648C55.4233 49.7648 55.1297 49.8389 54.868 49.9871C54.6127 50.1353 54.4085 50.348 54.2553 50.6251C54.1085 50.8958 54.0351 51.2084 54.0351 51.5628C54.0351 51.9173 54.1085 52.2331 54.2553 52.5102C54.4085 52.7809 54.6127 52.9936 54.868 53.1482C55.1297 53.2965 55.4233 53.3706 55.7488 53.3706Z" fill="#213B32"/>
<path d="M59.7087 49.0011H60.6277V51.1762H63.519V49.0011H64.438V54.1246H63.519V51.9785H60.6277V54.1246H59.7087V49.0011Z" fill="#213B32"/>
<path d="M71.6437 53.3126V55.3523H70.7725V54.1246H66.2251V49.0011H67.1441V53.3126H69.9205V49.0011H70.8395V53.3126H71.6437Z" fill="#213B32"/>
<path d="M77.4207 51.5918C77.4207 51.6627 77.4143 51.7562 77.4016 51.8722H73.2849C73.3424 52.3233 73.537 52.6874 73.8689 52.9646C74.2072 53.2352 74.6252 53.3706 75.1231 53.3706C75.7294 53.3706 76.2176 53.1643 76.5878 52.7519L77.0952 53.3512C76.8654 53.6219 76.5782 53.8281 76.2336 53.9699C75.8953 54.1117 75.5156 54.1826 75.0943 54.1826C74.5582 54.1826 74.0827 54.073 73.6679 53.8539C73.253 53.6284 72.9307 53.3158 72.7009 52.9162C72.4776 52.5166 72.3659 52.0655 72.3659 51.5628C72.3659 51.0666 72.4744 50.6187 72.6914 50.2191C72.9148 49.8195 73.2179 49.5102 73.6009 49.2911C73.9902 49.0655 74.4274 48.9527 74.9124 48.9527C75.3975 48.9527 75.8283 49.0655 76.2049 49.2911C76.5878 49.5102 76.8846 49.8195 77.0952 50.2191C77.3122 50.6187 77.4207 51.0763 77.4207 51.5918ZM74.9124 49.7358C74.4721 49.7358 74.1019 49.8711 73.8019 50.1418C73.5083 50.4125 73.336 50.7669 73.2849 51.2052H76.5399C76.4889 50.7734 76.3134 50.4221 76.0134 50.1515C75.7198 49.8743 75.3528 49.7358 74.9124 49.7358Z" fill="#213B32"/>
<path d="M83.5471 49.0011V54.1246H82.6281V49.8131H79.7656V54.1246H78.8465V49.0011H83.5471Z" fill="#213B32"/>
<path d="M89.1071 49.8131H87.2498V54.1246H86.3308V49.8131H84.4735V49.0011H89.1071V49.8131Z" fill="#213B32"/>
<path d="M89.5246 51.0698H92.0999V51.8722H89.5246V51.0698Z" fill="#213B32"/>
<path d="M98.2348 49.0011V54.1246H97.3157V49.8131H94.4532V54.1246H93.5341V49.0011H98.2348Z" fill="#213B32"/>
<path d="M101.823 48.9527C102.525 48.9527 103.061 49.1267 103.431 49.4748C103.807 49.8228 103.996 50.3416 103.996 51.0311V54.1246H103.125V53.4479C102.971 53.6864 102.751 53.87 102.464 53.9989C102.183 54.1214 101.848 54.1826 101.459 54.1826C100.891 54.1826 100.434 54.044 100.09 53.7669C99.7515 53.4898 99.5823 53.1257 99.5823 52.6745C99.5823 52.2234 99.7451 51.8625 100.071 51.5918C100.396 51.3147 100.913 51.1762 101.622 51.1762H103.077V50.9925C103.077 50.5929 102.962 50.2868 102.732 50.0741C102.502 49.8614 102.164 49.7551 101.717 49.7551C101.417 49.7551 101.124 49.8067 100.836 49.9098C100.549 50.0064 100.307 50.1386 100.109 50.3061L99.7259 49.6101C99.9876 49.3974 100.3 49.2363 100.664 49.1267C101.028 49.0107 101.414 48.9527 101.823 48.9527ZM101.612 53.4672C101.963 53.4672 102.266 53.3899 102.521 53.2352C102.777 53.0741 102.962 52.8485 103.077 52.5585V51.8432H101.66C100.881 51.8432 100.492 52.1074 100.492 52.6359C100.492 52.8937 100.591 53.0967 100.789 53.2449C100.986 53.3931 101.261 53.4672 101.612 53.4672Z" fill="#213B32"/>
<path d="M108.341 48.9527C108.832 48.9527 109.273 49.0623 109.662 49.2814C110.051 49.5005 110.355 49.8067 110.572 50.1998C110.795 50.5929 110.907 51.0473 110.907 51.5628C110.907 52.0784 110.795 52.536 110.572 52.9356C110.355 53.3287 110.051 53.6348 109.662 53.8539C109.273 54.073 108.832 54.1826 108.341 54.1826C107.977 54.1826 107.642 54.1117 107.336 53.9699C107.036 53.8281 106.78 53.6219 106.57 53.3512V56H105.651V49.0011H106.531V49.8131C106.736 49.5295 106.994 49.3169 107.307 49.1751C107.62 49.0269 107.964 48.9527 108.341 48.9527ZM108.264 53.3706C108.59 53.3706 108.88 53.2965 109.135 53.1482C109.397 52.9936 109.601 52.7809 109.748 52.5102C109.901 52.2331 109.978 51.9173 109.978 51.5628C109.978 51.2084 109.901 50.8958 109.748 50.6251C109.601 50.348 109.397 50.1353 109.135 49.9871C108.88 49.8389 108.59 49.7648 108.264 49.7648C107.945 49.7648 107.655 49.8421 107.393 49.9968C107.138 50.145 106.934 50.3545 106.78 50.6251C106.634 50.8958 106.56 51.2084 106.56 51.5628C106.56 51.9173 106.634 52.2331 106.78 52.5102C106.927 52.7809 107.131 52.9936 107.393 53.1482C107.655 53.2965 107.945 53.3706 108.264 53.3706Z" fill="#213B32"/>
<path d="M114.214 51.9592H113.161V54.1246H112.242V49.0011H113.161V51.1665H114.233L115.88 49.0011H116.866L114.942 51.4662L117 54.1246H115.918L114.214 51.9592Z" fill="#213B32"/>
</svg>
