<svg width="185" height="126" viewBox="0 0 185 126" fill="none" xmlns="http://www.w3.org/2000/svg">
<path d="M44.5872 83.006C40.915 86.1932 36.5499 88.3757 31.9423 89.3458C31.9077 89.3458 31.388 89.4843 30.8337 89.5536C28.963 89.9001 27.1615 90.0386 25.4987 90.0386C15.5907 90.0386 9.28557 85.0846 8.97378 84.8421C-1.52316 76.4238 0.0357923 62.7743 0.139722 62.1854C0.971163 55.4645 4.193 49.6445 9.18164 45.8337C11.0524 44.4133 17.9118 39.8404 27.0923 41.3647C31.873 42.1615 35.476 44.2747 37.9703 46.3187L33.8824 51.4113C32.1156 49.9909 29.4827 48.3973 26.0183 47.8084C19.4014 46.6998 14.4821 49.9909 13.131 51.0302C8.55806 54.5638 7.03375 59.4832 6.61803 62.9822C6.61803 63.0861 5.44016 73.6177 13.0617 79.7495C13.3042 79.9574 19.7825 84.9114 29.6905 83.1446C30.1062 83.0753 30.522 82.9714 30.5566 82.9714C34.0902 82.2092 37.4853 80.5117 40.326 78.052L44.5872 83.006Z" fill="#213B32"/>
<path d="M56.158 90.0732C55.8809 90.0732 55.5691 90.0732 55.2573 90.0386C53.1787 89.9346 49.3333 89.7961 45.5225 87.1978C41.4346 84.3917 38.9056 80.2345 38.6285 75.8001C38.386 71.6083 40.0835 67.4164 43.2014 64.5757C45.6611 62.3585 48.2247 61.631 49.9222 61.4231C51.1694 61.2846 54.9455 60.8342 58.0288 63.571C60.8002 66.0653 62.4285 70.9501 59.9341 75.1766C57.6477 79.0566 52.7283 80.7195 48.5018 79.022L50.9269 72.9594C52.2087 73.479 53.6637 72.994 54.3219 71.8508C55.0841 70.569 54.3912 69.0447 53.6637 68.4211C52.7976 67.6243 51.3772 67.7975 50.6844 67.8668C49.5758 68.0054 48.5365 68.4904 47.6011 69.3565C45.9382 70.8461 45.0029 73.1672 45.1414 75.3498C45.3493 78.6409 47.7743 80.7888 49.1947 81.7588C51.4465 83.2831 53.8023 83.387 55.5344 83.4563C59.1373 83.5949 61.8742 82.417 63.5371 81.6895C65.581 80.7888 67.521 79.5763 69.2186 78.0866L73.5143 83.006C71.2972 84.946 68.8375 86.5049 66.17 87.6828C64.3685 88.5143 60.8349 90.0732 56.158 90.0732Z" fill="#213B32"/>
<path d="M117.893 78.156L122.154 83.11C116.853 87.6829 111.968 90.0733 108.227 90.0733C106.564 90.0733 105.109 89.6229 103.966 88.6529C102.338 87.3365 101.541 85.2232 101.61 82.4518L101.645 81.4125C99.5662 84.5997 97.0372 87.5097 94.1964 90.0387H87.4756L87.5103 89.034C87.6488 85.0154 87.7874 80.9967 87.926 76.9435C87.1985 78.1906 86.4363 79.3685 85.6395 80.5464C83.0413 84.3918 79.2305 90.004 74.7269 90.004C74.2072 90.004 73.6876 89.9347 73.1679 89.7615C68.6989 88.4451 67.7289 82.0014 67.6943 76.8742L74.2419 76.8395C74.2765 79.8882 74.7269 82.1053 75.1426 83.1446C76.0433 82.5211 77.5676 80.8235 80.2698 76.8742C83.3877 72.3013 85.986 67.0701 88.0299 61.2847H95.0279C94.82 67.6244 94.5775 73.9641 94.335 80.3385C96.0672 78.1213 97.5915 75.731 98.7694 73.202C100.536 69.4605 101.679 65.4419 102.13 61.3193H108.677L108.123 82.5557C108.123 83.0061 108.158 83.3179 108.192 83.5257C109.301 83.595 112.869 82.4864 117.893 78.156Z" fill="#213B32"/>
<path d="M150.007 83.11C145.746 86.8169 141.311 88.9994 136.808 89.5884C135.006 89.8309 132.235 89.9001 130.018 90.0041C129.637 90.0041 129.255 90.0387 128.874 90.0387H128.77C128.285 90.0387 127.8 90.0734 127.315 90.0734H127.281C124.267 90.0734 121.357 88.7916 119.278 86.5397C117.165 84.2879 116.056 81.2393 116.264 78.1907L116.541 61.354H123.089L122.95 68.733C124.336 68.1441 125.895 67.8323 127.489 67.867C133.309 67.9709 138.055 72.6477 138.297 78.5025C138.367 79.9575 138.124 81.4472 137.605 82.8329C140.272 82.14 143.009 80.6157 145.746 78.2253L150.007 83.11ZM131.75 78.745C131.646 76.3892 129.671 74.4146 127.35 74.3799H127.281C124.96 74.3799 122.95 76.2507 122.777 78.5718C122.708 79.8882 123.158 81.1354 124.059 82.1054C124.89 83.0061 126.068 83.5258 127.212 83.5604C127.35 83.5604 127.489 83.5604 127.627 83.5604C128.667 83.4565 129.637 82.9715 130.433 82.1747C131.334 81.2047 131.819 79.9921 131.75 78.745Z" fill="#213B32"/>
<path d="M184.685 82.9365C179.384 87.5094 174.5 89.9345 170.724 89.9345C169.061 89.9345 167.606 89.4495 166.463 88.5141C165.423 87.648 164.73 86.5048 164.384 85.0498C161.647 87.7519 157.732 90.1077 153.852 90.1077C152.259 90.1077 150.7 89.7266 149.21 88.7912C145.607 86.5741 143.771 81.7933 144.464 76.3196L150.942 77.1511C150.596 79.8879 151.289 82.4515 152.605 83.2483C154.303 84.2876 157.663 82.5901 159.915 80.3036C159.222 80.1304 158.529 79.8879 157.871 79.5415C153.506 77.2896 152.155 72.2664 153.09 68.6981C154.58 62.9473 161.959 59.6562 169.477 61.3883L168.021 67.7281C163.449 66.6888 159.88 68.5595 159.43 70.2917C159.222 71.1231 159.499 72.9939 160.85 73.6867C161.82 74.1717 163.067 73.9985 164.107 73.3057V71.1578H170.654V82.3822V82.4169C170.654 82.9019 170.689 83.2137 170.724 83.4215C171.832 83.4562 175.401 82.3822 180.458 78.0171L184.685 82.9365Z" fill="#213B32"/>
<rect x="69.1041" width="18.9557" height="18.9557" rx="4" fill="#F2C840"/>
<rect x="92.3424" width="18.9557" height="18.9557" rx="4" fill="#F2C840"/>
<rect x="69.1041" y="22.1021" width="18.9557" height="18.9557" rx="4" fill="#F2C840"/>
<rect x="92.3424" y="22.1021" width="18.9557" height="18.9557" rx="4" fill="#F2C840"/>
<path d="M23.3315 120.188H21.9025V123.302H20.5706V120.188H19.1415L17.1159 123.302H15.5342L18.0593 119.493L15.7285 115.933H17.1436L19.1277 119.048H20.5706V115.933H21.9025V119.048H23.3454L25.3294 115.933H26.7585L24.4276 119.506L26.9527 123.302H25.371L23.3315 120.188Z" fill="#213B32"/>
<path d="M28.4183 115.933H29.7502V121.3L34.2593 115.933H35.4663V123.302H34.1344V117.935L29.6392 123.302H28.4183V115.933Z" fill="#213B32"/>
<path d="M44.3643 115.933V123.302H43.0324V117.101H39.8691L39.7859 118.742C39.7396 119.734 39.6517 120.563 39.5223 121.231C39.3928 121.889 39.18 122.417 38.884 122.816C38.5881 123.214 38.1765 123.414 37.6492 123.414C37.4088 123.414 37.1359 123.372 36.8307 123.288L36.9139 122.162C37.0342 122.19 37.1451 122.204 37.2469 122.204C37.6169 122.204 37.8944 122.042 38.0793 121.717C38.2643 121.393 38.3846 121.008 38.4401 120.563C38.4956 120.118 38.5464 119.483 38.5927 118.658L38.7176 115.933H44.3643Z" fill="#213B32"/>
<path d="M50.0892 123.386C49.3585 123.386 48.7018 123.224 48.119 122.899C47.5363 122.575 47.0785 122.13 46.7455 121.564C46.4218 120.99 46.2599 120.341 46.2599 119.618C46.2599 118.895 46.4218 118.25 46.7455 117.685C47.0785 117.11 47.5363 116.665 48.119 116.35C48.7018 116.026 49.3585 115.863 50.0892 115.863C50.8199 115.863 51.472 116.026 52.0454 116.35C52.6281 116.665 53.0814 117.11 53.4051 117.685C53.7381 118.25 53.9046 118.895 53.9046 119.618C53.9046 120.341 53.7381 120.99 53.4051 121.564C53.0814 122.13 52.6281 122.575 52.0454 122.899C51.472 123.224 50.8199 123.386 50.0892 123.386ZM50.0892 122.218C50.5609 122.218 50.9817 122.111 51.3517 121.898C51.731 121.676 52.0269 121.37 52.2397 120.98C52.4524 120.582 52.5588 120.128 52.5588 119.618C52.5588 119.108 52.4524 118.658 52.2397 118.269C52.0269 117.87 51.731 117.564 51.3517 117.351C50.9817 117.138 50.5609 117.031 50.0892 117.031C49.6174 117.031 49.192 117.138 48.8128 117.351C48.4428 117.564 48.1468 117.87 47.9248 118.269C47.7121 118.658 47.6057 119.108 47.6057 119.618C47.6057 120.128 47.7121 120.582 47.9248 120.98C48.1468 121.37 48.4428 121.676 48.8128 121.898C49.192 122.111 49.6174 122.218 50.0892 122.218Z" fill="#213B32"/>
<path d="M55.8279 115.933H57.1598V121.3L61.6689 115.933H62.876V123.302H61.544V117.935L57.0488 123.302H55.8279V115.933ZM59.2687 114.974C58.5842 114.974 58.0524 114.811 57.6731 114.487C57.2939 114.153 57.0997 113.676 57.0904 113.055H57.9922C58.0015 113.398 58.1171 113.676 58.3391 113.889C58.5703 114.093 58.8756 114.195 59.2548 114.195C59.634 114.195 59.9392 114.093 60.1705 113.889C60.4017 113.676 60.522 113.398 60.5312 113.055H61.4608C61.4515 113.676 61.2527 114.153 60.8642 114.487C60.4757 114.811 59.9439 114.974 59.2687 114.974Z" fill="#213B32"/>
<path d="M72.0453 120.188H70.5191V123.302H69.1872V115.933H70.5191V119.048H72.073L74.4594 115.933H75.8884L73.0997 119.479L76.0826 123.302H74.5149L72.0453 120.188Z" fill="#213B32"/>
<path d="M80.3847 123.386C79.654 123.386 78.9973 123.224 78.4146 122.899C77.8319 122.575 77.374 122.13 77.041 121.564C76.7173 120.99 76.5554 120.341 76.5554 119.618C76.5554 118.895 76.7173 118.25 77.041 117.685C77.374 117.11 77.8319 116.665 78.4146 116.35C78.9973 116.026 79.654 115.863 80.3847 115.863C81.1154 115.863 81.7675 116.026 82.341 116.35C82.9237 116.665 83.3769 117.11 83.7007 117.685C84.0336 118.25 84.2001 118.895 84.2001 119.618C84.2001 120.341 84.0336 120.99 83.7007 121.564C83.3769 122.13 82.9237 122.575 82.341 122.899C81.7675 123.224 81.1154 123.386 80.3847 123.386ZM80.3847 122.218C80.8564 122.218 81.2773 122.111 81.6473 121.898C82.0265 121.676 82.3225 121.37 82.5352 120.98C82.7479 120.582 82.8543 120.128 82.8543 119.618C82.8543 119.108 82.7479 118.658 82.5352 118.269C82.3225 117.87 82.0265 117.564 81.6473 117.351C81.2773 117.138 80.8564 117.031 80.3847 117.031C79.913 117.031 79.4875 117.138 79.1083 117.351C78.7383 117.564 78.4423 117.87 78.2203 118.269C78.0076 118.658 77.9012 119.108 77.9012 119.618C77.9012 120.128 78.0076 120.582 78.2203 120.98C78.4423 121.37 78.7383 121.676 79.1083 121.898C79.4875 122.111 79.913 122.218 80.3847 122.218Z" fill="#213B32"/>
<path d="M86.1234 115.933H87.4553V119.061H91.6453V115.933H92.9773V123.302H91.6453V120.216H87.4553V123.302H86.1234V115.933Z" fill="#213B32"/>
<path d="M103.42 122.134V125.068H102.157V123.302H95.5671V115.933H96.899V122.134H100.923V115.933H102.254V122.134H103.42Z" fill="#213B32"/>
<path d="M111.792 119.659C111.792 119.761 111.783 119.896 111.764 120.063H105.798C105.882 120.712 106.164 121.235 106.645 121.634C107.135 122.023 107.741 122.218 108.462 122.218C109.341 122.218 110.048 121.921 110.585 121.328L111.32 122.19C110.987 122.579 110.571 122.876 110.072 123.08C109.581 123.284 109.031 123.386 108.421 123.386C107.644 123.386 106.954 123.228 106.353 122.913C105.752 122.589 105.285 122.139 104.952 121.564C104.628 120.99 104.466 120.341 104.466 119.618C104.466 118.904 104.624 118.26 104.938 117.685C105.262 117.11 105.701 116.665 106.256 116.35C106.82 116.026 107.454 115.863 108.157 115.863C108.86 115.863 109.484 116.026 110.03 116.35C110.585 116.665 111.015 117.11 111.32 117.685C111.635 118.26 111.792 118.918 111.792 119.659ZM108.157 116.99C107.519 116.99 106.982 117.184 106.548 117.574C106.122 117.963 105.872 118.473 105.798 119.103H110.516C110.442 118.482 110.187 117.977 109.752 117.588C109.327 117.189 108.795 116.99 108.157 116.99Z" fill="#213B32"/>
<path d="M120.67 115.933V123.302H119.339V117.101H115.19V123.302H113.858V115.933H120.67Z" fill="#213B32"/>
<path d="M128.728 117.101H126.036V123.302H124.704V117.101H122.013V115.933H128.728V117.101Z" fill="#213B32"/>
<path d="M129.333 118.909H133.065V120.063H129.333V118.909Z" fill="#213B32"/>
<path d="M141.956 115.933V123.302H140.624V117.101H136.476V123.302H135.144V115.933H141.956Z" fill="#213B32"/>
<path d="M147.155 115.863C148.173 115.863 148.95 116.114 149.486 116.614C150.032 117.115 150.305 117.861 150.305 118.853V123.302H149.042V122.329C148.82 122.672 148.501 122.936 148.085 123.122C147.678 123.298 147.192 123.386 146.628 123.386C145.805 123.386 145.144 123.187 144.644 122.788C144.154 122.389 143.909 121.866 143.909 121.217C143.909 120.568 144.145 120.049 144.616 119.659C145.088 119.261 145.837 119.061 146.864 119.061H148.973V118.797C148.973 118.223 148.806 117.782 148.473 117.476C148.14 117.17 147.65 117.018 147.003 117.018C146.568 117.018 146.143 117.092 145.726 117.24C145.31 117.379 144.959 117.569 144.672 117.81L144.117 116.809C144.496 116.503 144.949 116.271 145.477 116.114C146.004 115.947 146.563 115.863 147.155 115.863ZM146.85 122.357C147.359 122.357 147.798 122.246 148.168 122.023C148.538 121.791 148.806 121.467 148.973 121.05V120.021H146.919C145.791 120.021 145.227 120.401 145.227 121.161C145.227 121.532 145.37 121.824 145.657 122.037C145.944 122.25 146.341 122.357 146.85 122.357Z" fill="#213B32"/>
<path d="M156.602 115.863C157.314 115.863 157.952 116.021 158.516 116.336C159.081 116.651 159.52 117.092 159.834 117.657C160.158 118.223 160.32 118.876 160.32 119.618C160.32 120.359 160.158 121.017 159.834 121.592C159.52 122.158 159.081 122.598 158.516 122.913C157.952 123.228 157.314 123.386 156.602 123.386C156.075 123.386 155.589 123.284 155.145 123.08C154.71 122.876 154.34 122.579 154.035 122.19V126H152.703V115.933H153.98V117.101C154.276 116.693 154.65 116.387 155.103 116.183C155.557 115.97 156.056 115.863 156.602 115.863ZM156.491 122.218C156.963 122.218 157.383 122.111 157.753 121.898C158.133 121.676 158.429 121.37 158.641 120.98C158.863 120.582 158.974 120.128 158.974 119.618C158.974 119.108 158.863 118.658 158.641 118.269C158.429 117.87 158.133 117.564 157.753 117.351C157.383 117.138 156.963 117.031 156.491 117.031C156.028 117.031 155.608 117.143 155.228 117.365C154.858 117.578 154.562 117.88 154.34 118.269C154.128 118.658 154.021 119.108 154.021 119.618C154.021 120.128 154.128 120.582 154.34 120.98C154.553 121.37 154.849 121.676 155.228 121.898C155.608 122.111 156.028 122.218 156.491 122.218Z" fill="#213B32"/>
<path d="M165.113 120.188H163.587V123.302H162.255V115.933H163.587V119.048H165.141L167.527 115.933H168.956L166.168 119.479L169.151 123.302H167.583L165.113 120.188Z" fill="#213B32"/>
</svg>
