<svg width="51" height="47" viewBox="0 0 51 47" fill="none" xmlns="http://www.w3.org/2000/svg">
<path d="M48.6826 41.2863L46.4162 30.0524H47.5979C48.5321 30.0524 49.292 29.2924 49.292 28.3583V26.0163C49.292 25.1318 48.6103 24.4046 47.7449 24.3297V17.0506C48.6103 16.9756 49.292 16.2485 49.292 15.3639V13.0221C49.292 12.088 48.5321 11.328 47.5979 11.328H41.5563V8.50222H42.1282C43.0622 8.50222 43.8222 7.74227 43.8222 6.80805V1.69408C43.8222 0.759954 43.0622 0 42.1282 0H30.4748C29.5407 0 28.7807 0.759954 28.7807 1.69408V6.80814C28.7807 7.6927 29.4624 8.41994 30.3278 8.49477V11.328H19.8264V8.49487C20.6918 8.42003 21.3735 7.6927 21.3735 6.80824V1.69408C21.3735 0.759954 20.6136 0 19.6795 0H8.02605C7.09202 0 6.33197 0.759954 6.33197 1.69408V6.80814C6.33197 7.74227 7.09193 8.50232 8.02605 8.50232H8.59793V11.3281H2.5563C1.62218 11.3281 0.862222 12.0881 0.862222 13.0222V15.364C0.862222 16.2486 1.54391 16.9757 2.40926 17.0507V24.3298C1.54381 24.4047 0.862222 25.1319 0.862222 26.0164V28.3584C0.862222 29.2925 1.62218 30.0525 2.5563 30.0525H3.73806L1.47162 41.2863C0.642503 41.3959 0 42.1056 0 42.9641V45.3059C0 46.24 0.759954 47 1.69417 47H20.5417C21.4757 47 22.2358 46.24 22.2358 45.3059V42.9641C22.2358 42.1051 21.5926 41.3951 20.7629 41.2861L18.4731 30.0524H31.6811L29.3915 41.286C28.5618 41.395 27.9186 42.1051 27.9186 42.964V45.3058C27.9186 46.2399 28.6785 46.9999 29.6126 46.9999H48.4602C49.3943 46.9999 50.1542 46.2399 50.1542 45.3058V42.964C50.1542 42.1056 49.5117 41.3959 48.6826 41.2863ZM30.253 6.80814V1.69408C30.253 1.57173 30.3525 1.4722 30.4748 1.4722H42.1282C42.2504 1.4722 42.35 1.57173 42.35 1.69408V6.80814C42.35 6.93049 42.2504 7.03002 42.1282 7.03002H30.4748C30.3524 7.03002 30.253 6.93049 30.253 6.80814ZM31.8 8.50232H40.0841V11.3281H31.8V8.50232ZM7.80427 6.80814V1.69408C7.80427 1.57173 7.9038 1.4722 8.02605 1.4722H19.6795C19.8018 1.4722 19.9012 1.57173 19.9012 1.69408V6.80814C19.9012 6.93049 19.8017 7.03002 19.6795 7.03002H8.02605C7.9038 7.03002 7.80427 6.93049 7.80427 6.80814ZM10.0701 8.50232H18.3541V11.3281H10.0701V8.50232ZM2.33442 15.364V13.0222C2.33442 12.8999 2.43395 12.8003 2.5563 12.8003H47.5979C47.7203 12.8003 47.8198 12.8998 47.8198 13.0222V15.364C47.8198 15.4864 47.7203 15.5859 47.5979 15.5859H12.2785C11.8719 15.5859 11.5423 15.9155 11.5423 16.3221C11.5423 16.7286 11.8719 17.0582 12.2785 17.0582H18.3541V24.3225H3.88147V17.0582H9.33398C9.7406 17.0582 10.0701 16.7287 10.0701 16.3221C10.0701 15.9155 9.7406 15.5859 9.33398 15.5859H2.5563C2.43385 15.5858 2.33442 15.4863 2.33442 15.364ZM28.091 24.3223V17.058H30.3278V24.3223H28.091ZM23.5355 24.3223V17.058H26.6188V24.3223H23.5355ZM19.8264 24.3223V17.058H22.0633V24.3223H19.8264ZM2.33442 28.3583V26.0163C2.33442 25.894 2.43395 25.7945 2.5563 25.7945H39.2966C39.7033 25.7945 40.0328 25.4648 40.0328 25.0583C40.0328 24.6518 39.7033 24.3222 39.2966 24.3222H31.8V17.0579H46.2728V24.3222H42.2412C41.8346 24.3222 41.5051 24.6518 41.5051 25.0583C41.5051 25.4648 41.8346 25.7945 42.2412 25.7945H47.598C47.7204 25.7945 47.8199 25.894 47.8199 26.0163V28.3583C47.8199 28.4806 47.7204 28.5802 47.598 28.5802H2.5563C2.43385 28.5802 2.33442 28.4806 2.33442 28.3583ZM19.2571 41.27H10.0126C9.60601 41.27 9.27648 41.5996 9.27648 42.0061C9.27648 42.4127 9.60601 42.7423 10.0126 42.7423H20.5417C20.664 42.7423 20.7635 42.8418 20.7635 42.9642V45.306C20.7635 45.4284 20.6639 45.5279 20.5417 45.5279H1.69417C1.57183 45.5279 1.4723 45.4284 1.4723 45.306V42.9642C1.4723 42.8418 1.57192 42.7423 1.69417 42.7423H7.06822C7.47484 42.7423 7.80437 42.4128 7.80437 42.0061C7.80437 41.5995 7.47484 41.27 7.06822 41.27H2.97673L5.23984 30.0524H16.9706L19.2571 41.27ZM44.9144 30.0524L47.1775 41.27H30.8972L33.1836 30.0524H44.9144ZM48.682 45.3059C48.682 45.4283 48.5824 45.5278 48.4602 45.5278H29.6125C29.4902 45.5278 29.3908 45.4283 29.3908 45.3059V42.9641C29.3908 42.8417 29.4903 42.7422 29.6125 42.7422H48.4601C48.5824 42.7422 48.6819 42.8417 48.6819 42.9641V45.3059H48.682Z" fill="#333333"/>
</svg>
