<svg width="19" height="19" viewBox="0 0 19 19" fill="none" xmlns="http://www.w3.org/2000/svg">
<path d="M17.2188 2.375H16.0312V1.4253C16.0312 0.967813 15.6875 0.59375 15.2683 0.59375H11.4493C11.0313 0.59375 10.6875 0.967813 10.6875 1.4253V2.375H3.54498L1.78125 5.9375H3.00586V8.3125H2.80755L1.81836 9.5L2.80755 10.6875H3.02427V11.3252C3.02427 11.4864 3.14866 11.6167 3.30273 11.6167C3.76319 11.6167 4.13784 12.0098 4.13784 12.4928C4.13784 12.9758 3.76319 13.3689 3.30273 13.3689C2.84228 13.3689 2.46763 12.9758 2.46763 12.4928C2.46763 12.3316 2.34294 12.2013 2.18916 12.2013C2.03508 12.2013 1.91069 12.3316 1.91069 12.4928C1.91128 13.2985 2.53531 13.9531 3.30273 13.9531C4.06986 13.9531 4.69448 13.2985 4.69448 12.4931C4.69448 11.788 4.21563 11.1978 3.5812 11.0627V10.6875H3.79763L4.78711 9.5L3.79763 8.3125H3.59961V5.9375H10.6875V8.0747C10.6875 8.46895 10.9431 8.79938 11.2812 8.88428V18.4062H12.0605V16.625L14.6582 17.5156L12.0605 18.4062H15.4375V8.88398C15.7759 8.79937 16.0312 8.46895 16.0312 8.0747V5.9375H17.2188V5.04688H16.6018L17.2188 3.8757V2.375ZM3.15964 5.04688L3.85314 3.62217L4.60305 5.04688H3.15964ZM4.47242 3.26562H5.70534L5.08903 4.4368L4.47242 3.26562ZM5.57502 5.04688L6.19163 3.8757L6.80853 5.04688H5.57502ZM6.67791 3.26562H7.91083L7.29422 4.4368L6.67791 3.26562ZM7.7808 5.04688L8.39711 3.8757L9.01342 5.04688H7.7808ZM8.88339 3.26562H10.1163L9.5 4.4368L8.88339 3.26562ZM10.6875 5.04688H9.98598L10.6023 3.8757L10.6875 4.0375V5.04688ZM14.6582 16.625L12.0605 15.7344L14.6582 14.8438V16.625ZM12.0605 14.8438V13.0625L14.6582 13.9537L12.0605 14.8438ZM14.6582 13.0625L12.0605 12.1719L14.6582 11.2812V13.0625ZM12.0605 11.2812V9.50059L14.6582 10.3906L12.0605 11.2812ZM14.6582 9.50059L12.9259 8.90625H14.6582V9.50059ZM15.1035 4.52675C15.1035 4.81264 14.9028 5.04688 14.6582 5.04688H11.9857C11.7411 5.04688 11.541 4.81264 11.541 4.52675V2.00628C11.541 1.71861 11.7411 1.48438 11.9857 1.48438H14.6582C14.9028 1.48438 15.1035 1.71861 15.1035 2.00628V4.52675ZM16.1159 4.4368L16.0312 4.27589V3.26562H16.7322L16.1159 4.4368Z" fill="#D4D4D4"/>
</svg>
