<svg width="16" height="16" viewBox="0 0 16 16" fill="none" xmlns="http://www.w3.org/2000/svg">
<path d="M0 13L6.1 6C6 5.7 6 5.4 6 5C6 2.2 8.2 0 11 0C13.8 0 16 2.3 16 5C16 7.7 13.8 10 11 10C10.7 10 10.4 10 10.1 9.9L9 11L7 11L7 13H5V15L4 16H0L0 13ZM6 12L6 10.3L4.6 12H6ZM3.6 15L4 14.6V12.7L2 15H3.6ZM7.6 7.3L8 8L6.3 10L8.6 10L9.4 9.2L9.8 8.9L10.3 9C10.5 9 10.8 9.1 11 9.1C13.2 9.1 15 7.3 15 5.1C15 2.9 13.2 1.1 11 1.1C8.8 1.1 7 2.9 7 5.1C7 5.4 7 5.6 7.1 5.9L7.2 6.4L6.9 6.8L1 13.4L1 15L7.6 7.3Z" fill="#D4D4D4"/>
<path d="M11.5 6.00002C11.6971 5.99996 11.8922 5.96108 12.0742 5.88561C12.2562 5.81015 12.4216 5.69956 12.5609 5.56018C12.7002 5.4208 12.8107 5.25535 12.886 5.07328C12.9613 4.8912 13.0001 4.69607 13 4.49902C13 4.30198 12.9611 4.10687 12.8856 3.92485C12.8101 3.74282 12.6996 3.57744 12.5602 3.43816C12.4208 3.29887 12.2554 3.1884 12.0733 3.11305C11.8912 3.0377 11.6961 2.99896 11.499 2.99902C11.1011 2.99916 10.7195 3.15737 10.4382 3.43886C10.1569 3.72036 9.99889 4.10207 9.99902 4.50002C9.99916 4.89798 10.1574 5.27959 10.4389 5.56089C10.7204 5.8422 11.1021 6.00016 11.5 6.00002Z" fill="#D4D4D4"/>
</svg>
