<svg width="20" height="15" viewBox="0 0 20 15" fill="none" xmlns="http://www.w3.org/2000/svg">
<path d="M18.4239 2.33696C18.0435 1.93841 17.5181 1.7029 16.9203 1.7029H13.913V1.66667C13.913 1.21377 13.7319 0.778985 13.4239 0.48913C13.1159 0.181159 12.6993 0 12.2464 0H6.81159C6.34058 0 5.92391 0.181159 5.61594 0.48913C5.30797 0.797101 5.12681 1.21377 5.12681 1.66667V1.7029H2.13768C1.53985 1.7029 1.01449 1.93841 0.634058 2.33696C0.253623 2.71739 0 3.26087 0 3.84058V12.8623C0 13.4601 0.235507 13.9855 0.634058 14.3659C1.01449 14.7464 1.55797 15 2.13768 15H16.9203C17.5181 15 18.0435 14.7645 18.4239 14.3659C18.8043 13.9855 19.058 13.442 19.058 12.8623V3.84058C19.058 3.24275 18.8225 2.71739 18.4239 2.33696ZM18.1159 12.8623H18.0978C18.0978 13.1884 17.971 13.4783 17.7536 13.6957C17.5362 13.913 17.2464 14.0399 16.9203 14.0399H2.13768C1.81159 14.0399 1.52174 13.913 1.30435 13.6957C1.08696 13.4783 0.960145 13.1884 0.960145 12.8623V3.84058C0.960145 3.51449 1.08696 3.22464 1.30435 3.00725C1.52174 2.78985 1.81159 2.66304 2.13768 2.66304H5.63406C5.9058 2.66304 6.12319 2.44565 6.12319 2.17391V1.64855C6.12319 1.44928 6.19565 1.26812 6.32246 1.1413C6.44927 1.01449 6.63043 0.942029 6.82971 0.942029H12.2464C12.4457 0.942029 12.6268 1.01449 12.7536 1.1413C12.8804 1.26812 12.9529 1.44928 12.9529 1.64855V2.17391C12.9529 2.44565 13.1703 2.66304 13.442 2.66304H16.9384C17.2645 2.66304 17.5543 2.78985 17.7717 3.00725C17.9891 3.22464 18.1159 3.51449 18.1159 3.84058V12.8623Z" fill="black"/>
<path d="M9.52899 3.89502C8.2971 3.89502 7.17391 4.40227 6.37681 5.19937C5.56159 6.01458 5.07246 7.11966 5.07246 8.35154C5.07246 9.58342 5.57971 10.7066 6.37681 11.5037C7.19203 12.3189 8.2971 12.8081 9.52899 12.8081C10.7609 12.8081 11.8841 12.3008 12.6812 11.5037C13.4964 10.6885 13.9855 9.58342 13.9855 8.35154C13.9855 7.11966 13.4783 5.99647 12.6812 5.19937C11.8841 4.40227 10.7609 3.89502 9.52899 3.89502ZM11.9928 10.8334C11.3587 11.4494 10.4891 11.8479 9.52899 11.8479C8.56884 11.8479 7.69928 11.4494 7.06522 10.8334C6.43116 10.1994 6.05073 9.3298 6.05073 8.36966C6.05073 7.40951 6.44928 6.53995 7.06522 5.90589C7.69928 5.27183 8.56884 4.8914 9.52899 4.8914C10.4891 4.8914 11.3587 5.28995 11.9928 5.90589C12.6268 6.53995 13.0072 7.40951 13.0072 8.36966C13.0254 9.3298 12.6268 10.1994 11.9928 10.8334Z" fill="black"/>
<path d="M15.9783 5.65232C16.4685 5.65232 16.8659 5.25489 16.8659 4.76463C16.8659 4.27438 16.4685 3.87695 15.9783 3.87695C15.488 3.87695 15.0906 4.27438 15.0906 4.76463C15.0906 5.25489 15.488 5.65232 15.9783 5.65232Z" fill="black"/>
</svg>
