<svg width="45" height="44" viewBox="0 0 45 44" fill="none" xmlns="http://www.w3.org/2000/svg">
<path fill-rule="evenodd" clip-rule="evenodd" d="M4 0C1.79086 0 0 1.79086 0 4V16.9806C0 19.1897 1.79086 20.9806 4 20.9806H16.9806C19.1897 20.9806 20.9806 19.1897 20.9806 16.9806V4C20.9806 1.79086 19.1897 0 16.9806 0H4ZM27.0276 0C24.8184 0 23.0276 1.79086 23.0276 4V16.9806C23.0276 19.1897 24.8184 20.9806 27.0276 20.9806H40.0081C42.2173 20.9806 44.0081 19.1897 44.0081 16.9806V4C44.0081 1.79086 42.2173 0 40.0081 0H27.0276ZM0 26.4475C0 24.2384 1.79086 22.4475 4 22.4475H16.9806C19.1897 22.4475 20.9806 24.2384 20.9806 26.4475V39.4281C20.9806 41.6372 19.1897 43.4281 16.9806 43.4281H4C1.79086 43.4281 0 41.6372 0 39.4281V26.4475ZM27.0276 22.4475C24.8184 22.4475 23.0276 24.2384 23.0276 26.4475V39.4281C23.0276 41.6372 24.8184 43.4281 27.0276 43.4281H40.0081C42.2173 43.4281 44.0081 41.6372 44.0081 39.4281V26.4475C44.0081 24.2384 42.2173 22.4475 40.0081 22.4475H27.0276Z" fill="#F2C840" fill-opacity="0.8"/>
</svg>
