<svg width="56" height="51" viewBox="0 0 56 51" fill="none" xmlns="http://www.w3.org/2000/svg">
<path d="M55.5813 18.6285C55.5198 18.3485 55.3154 18.1216 55.0435 18.0309L36.4347 11.828C36.0081 11.6859 35.5467 11.9164 35.4044 12.343C35.2622 12.7698 35.4928 13.2311 35.9196 13.3733L51.4638 18.5546L31.5969 22.0098L5.6166 3.27227L32.4411 12.2138C32.8678 12.3557 33.3291 12.1255 33.4713 11.6988C33.6136 11.272 33.3829 10.8107 32.9562 10.6685L1.07204 0.0404005C1.06118 0.0368169 1.05347 0.0360568 1.04413 0.0336677C0.813046 -0.0343123 0.556872 -0.000430941 0.34848 0.145194C0.0284528 0.368464 -0.0881773 0.787312 0.0702616 1.14383L21.6588 49.718C21.7662 49.9599 21.9844 50.1343 22.2438 50.1861C22.2968 50.1966 22.3501 50.2018 22.403 50.2018C22.6095 50.2018 22.8108 50.1231 22.9636 49.9782L31.9719 41.4336L39.9585 46.4778C39.9622 46.4802 39.9664 46.4807 39.9702 46.4823C40.0956 46.5589 40.2406 46.6037 40.3929 46.6037C40.4234 46.6037 40.4541 46.6019 40.485 46.5984C40.8605 46.556 41.1575 46.2607 41.2022 45.8854L42.9663 31.0462L55.344 19.3967C55.5528 19.2002 55.6429 18.9084 55.5813 18.6285ZM52.2508 20.071L42.1239 29.6021L33.4438 23.3418L52.2508 20.071ZM35.6191 35.729L23.8402 46.9014L28.2573 28.5837L35.6191 35.729ZM36.4495 37.1864L38.8304 43.8386L33.1912 40.277L36.4495 37.1864ZM39.9935 42.2546L37.5622 35.4612C37.5606 35.4567 37.5581 35.4525 37.5563 35.448C37.5144 35.3372 37.4494 35.2354 37.3626 35.1512L25.3096 23.4528C24.987 23.1396 24.4713 23.1473 24.158 23.4699C23.8447 23.7928 23.8524 24.3084 24.1751 24.6216L26.8995 27.2658L22.1734 46.8651L3.26912 4.33042L21.8363 22.3515C22.159 22.6648 22.6747 22.6572 22.988 22.3344C23.3013 22.0115 23.2936 21.4959 22.9708 21.1827L9.39318 8.00448L41.3272 31.0361L39.9935 42.2546Z" fill="#333333"/>
</svg>
